<svg xmlns="http://www.w3.org/2000/svg" viewBox="0 0 32 32" fill="none">
  <path d="M11.5 24.5h9M13 28h6" stroke="currentColor" stroke-width="2" stroke-linecap="round"/>
  <path d="M22.5 13.5c0-4-3-7-6.5-7s-6.5 3-6.5 7c0 2.4 1.1 4.2 2.7 5.7.7.7 1.3 1.5 1.3 2.5h5c0-1 .6-1.8 1.3-2.5 1.6-1.5 2.7-3.3 2.7-5.7Z" stroke="currentColor" stroke-width="2" stroke-linejoin="round"/>
  <path d="M16 2.5v-1M6.5 6.5l-.8-.8M25.5 6.5l.8-.8M4 15H2.5M29.5 15H28" stroke="currentColor" stroke-width="2" stroke-linecap="round" opacity=".75"/>
</svg>
